<?xml version="1.0" encoding="iso-8859-1"?>
<!DOCTYPE svg PUBLIC "-//W3C//DTD SVG 1.0//EN" "http://www.w3.org/TR/2001/REC-SVG-20010904/DTD/svg10.dtd">
<svg>
<!-- Constructed by RISC OS Draw -->
<g>
<path style="fill-rule:evenodd;stroke-width:7.5;stroke:#000;fill:#ACACAC;" d="M 11.722656 181.783203 L 181.785156 11.720703 C 192.414062 1.091797  213.671875 1.091797  224.300781 11.720703 L 319.960937 107.380859 C 330.589844 118.009766  330.589844 139.267578  319.960937 149.896484 L 149.898437 319.958984 C 139.269531 330.587891  118.011719 330.587891  107.382812 319.958984 L 11.722656 224.298828 C 1.09375 213.669922  1.09375 192.412109  11.722656 181.783203 Z " />
<g>
<path style="stroke:none;fill:#000;" d="M 78.15625 202.830078 L 107.130859 217.712891 C 103.849609 221.310547  102.595703 222.541016  98.933594 226.132812 C 96.238281 228.78125  94.117187 230.667969  91.035156 233.503906 L 78.15625 202.830078 Z M 61.861328 190.267578 L 62.412109 191.796875 C 64.931641 197.837891  66.332031 201.189453  68.482422 206.462891 C 70.246094 210.962891  67.638672 204.447266  76.685547 226.777344 L 79.392578 233.580078 C 81.53125 238.847656  83.675781 244.126953  85.732422 249.107422 C 90.765625 261.757812  93.191406 267.886719  97.1875 279.289062 L 97.832031 280.917969 C 100.158203 277.882812  101.025391 276.839844  102.759766 275.140625 C 103.726562 274.191406  105.074219 273.066406  108.244141 270.710937 C 103.556641 261.693359  101.875 258.236328  95.511719 244.044922 C 101.587891 237.705078  102.841797 236.480469  106.023437 233.357422 C 107.857422 231.564453  110.839844 228.828125  116.136719 224.005859 L 116.810547 223.349609 L 117.953125 223.929687 L 119.089844 224.515625 L 120.132812 225.189453 C 125.546875 228.201172  129.0625 230.046875  130.105469 230.726562 C 134.757812 233.351562  137.318359 234.998047  141.777344 237.810547 C 145.257812 233.638672  146.705078 232.027344  150.466797 228.341797 C 153.548828 225.318359  156.244141 222.863281  161.054687 218.902344 C 144.033203 211.578125  137.007812 208.267578  119.716797 199.695312 C 109.925781 194.732422  99.378906 189.382812  94.726562 186.951172 C 94.726562 186.951172  95.488281 187.34375  83.798828 181.214844 C 76.492187 177.423828  79.626953 179.076172  74.113281 176.158203 C 71.505859 179.474609  70.351562 180.798828  68.130859 182.972656 C 66.783203 184.296875  65.048828 185.808594  61.199219 188.826172 L 61.861328 190.267578 Z " />
<path style="stroke:none;fill:#000;" d="M 150.601562 151.167969 C 155.998047 145.876953  165.132812 148.830078  175.251953 159.136719 C 185.177734 169.255859  187.755859 178.449219  182.359375 183.746094 C 176.869141 189.130859  167.259766 186.271484  157.328125 176.152344 C 147.496094 166.132812  144.912109 156.746094  150.601562 151.167969 Z M 135.882812 182.820312 C 144.296875 191.017578  140.042969 186.869141  148.738281 195.546875 C 157.064453 203.837891  158.669922 205.478516  161.505859 208.367187 C 163.017578 209.908203  165.197266 212.123047  167.833984 215.011719 C 169.914062 217.132812  167.646484 214.818359  174.548828 222.048828 L 181.732422 229.748047 C 187.017578 235.525391  188.341797 236.878906  190.890625 239.867187 C 193.890625 235.976562  195.625 233.890625  198.226562 231.335937 C 200.734375 228.880859  202.949219 227.087891  206.986328 224.076172 C 204.8125 222.048828  206.798828 223.882812  200.365234 217.90625 L 197.810547 215.679687 C 194.587891 212.597656  189.958984 208.0625  185.611328 203.632812 L 178.046875 195.921875 L 176.248047 194.087891 C 183.496094 194.925781  188.576172 192.96875  194.453125 187.197266 C 206.019531 175.853516  204.841797 158.849609  191.511719 145.261719 C 176.763672 130.232422  159.314453 128.439453  146.693359 140.826172 C 141.390625 146.023437  139.234375 152.111328  140.3125 158.615234 C 139.275391 157.367187  138.900391 156.980469  135.976562 153.037109 C 132.501953 157.203125  130.667969 159.189453  128.453125 161.363281 C 125.851562 163.917969  124.117187 165.429687  120.554687 168.166016 C 121.216797 168.839844  121.884766 169.326172  122.259766 169.707031 C 123.871094 171.154297  127.65625 174.816406  132.666016 179.732422 L 135.882812 182.820312 Z " />
<path style="stroke:none;fill:#000;" d="M 206.101562 97.167969 C 211.498047 91.876953  220.632812 94.830078  230.751953 105.136719 C 240.677734 115.255859  243.255859 124.449219  237.859375 129.746094 C 232.369141 135.130859  222.759766 132.271484  212.828125 122.152344 C 202.996094 112.132812  200.412109 102.746094  206.101562 97.167969 Z M 191.382812 128.820312 C 199.796875 137.017578  195.542969 132.869141  204.238281 141.546875 C 212.564453 149.837891  214.169922 151.478516  217.005859 154.367187 C 218.517578 155.908203  220.697266 158.123047  223.333984 161.011719 C 225.414062 163.132812  223.146484 160.818359  230.048828 168.048828 L 237.232422 175.748047 C 242.517578 181.525391  243.841797 182.878906  246.390625 185.867187 C 249.390625 181.976562  251.125 179.890625  253.726562 177.335937 C 256.234375 174.880859  258.449219 173.087891  262.486328 170.076172 C 260.3125 168.048828  262.298828 169.882812  255.865234 163.90625 L 253.310547 161.679687 C 250.087891 158.597656  245.458984 154.0625  241.111328 149.632812 L 233.546875 141.921875 L 231.748047 140.087891 C 238.996094 140.925781  244.076172 138.96875  249.953125 133.197266 C 261.519531 121.853516  260.341797 104.849609  247.011719 91.261719 C 232.263672 76.232422  214.814453 74.439453  202.193359 86.826172 C 196.890625 92.023437  194.734375 98.111328  195.8125 104.615234 C 194.775391 103.367187  194.400391 102.980469  191.476562 99.037109 C 188.001953 103.203125  186.167969 105.189453  183.953125 107.363281 C 181.351562 109.917969  179.617187 111.429687  176.054687 114.166016 C 176.716797 114.839844  177.384766 115.326172  177.759766 115.707031 C 179.371094 117.154297  183.15625 120.816406  188.166016 125.732422 L 191.382812 128.820312 Z " />
</g>
</g>
</svg>
