<?xml version="1.0" encoding="iso-8859-1"?>
<!DOCTYPE svg PUBLIC "-//W3C//DTD SVG 1.0//EN" "http://www.w3.org/TR/2001/REC-SVG-20010904/DTD/svg10.dtd">
<svg>
<!-- Constructed by RISC OS Draw -->
<path style="fill-rule:evenodd;stroke:none;fill:none;" d="M 0 0 L 120.460937 0 L 120.460937 116.917969 L 0 116.917969 L 0 0 Z " />
<path style="fill-rule:evenodd;stroke-width:0.632812;stroke:#545454;fill:#99DC99;" d="M 3.875 39.169922 L 3.875 98.916016 C 3.875 102.431641  7.375 105.943359  10.898437 105.943359 L 102.457031 105.943359 C 105.974609 105.943359  109.498047 102.431641  109.498047 98.916016 L 109.498047 39.169922 C 109.498047 35.681641  105.974609 32.150391  102.457031 32.150391 L 60.195312 32.150391 C 56.671875 32.150391  53.154297 21.605469  49.638672 21.605469 L 28.501953 21.605469 C 24.978516 21.605469  21.462891 32.150391  17.939453 32.150391 L 10.898437 32.150391 C 7.375 32.150391  3.875 35.681641  3.875 39.169922 Z " />
<g>
<path style="fill-rule:evenodd;stroke-width:1;stroke:none;fill:#A8EDA8;" d="M 11.041016 98.789062 L 7.529297 105.791016 C 6.367187 103.449219  4.041016 102.292969  4.041016 98.789062 L 4.041016 46.267578 L 102.314453 46.267578 L 102.314453 49.773437 L 11.041016 49.773437 L 11.041016 98.789062 Z " />
<path style="fill-rule:evenodd;stroke-width:1;stroke:none;fill:#A8EDA8;" d="M 56.671875 39.257812 L 60.183594 32.263672 L 102.314453 32.263672 C 105.820312 32.263672  106.984375 34.605469  109.332031 35.783203 L 102.314453 39.257812 L 56.671875 39.257812 Z " />
<path style="fill-rule:evenodd;stroke-width:1;stroke:none;fill:#A8EDA8;" d="M 4.041016 46.267578 L 4.041016 39.257812 C 4.041016 35.783203  7.529297 32.263672  11.041016 32.263672 L 18.060547 32.263672 C 21.572266 32.263672  25.078125 21.757812  28.589844 21.757812 L 49.660156 21.757812 L 46.146484 28.765625 L 32.105469 28.765625 C 25.078125 28.765625  25.078125 39.257812  18.060547 39.257812 L 11.041016 39.257812 L 11.041016 42.763672 L 4.041016 46.267578 Z " />
<path style="fill-rule:evenodd;stroke-width:1;stroke:none;fill:#95CC99;" d="M 4.041016 46.267578 L 11.041016 42.763672 L 102.314453 42.763672 L 102.314453 39.257812 L 109.332031 35.783203 L 109.332031 98.789062 C 109.332031 102.292969  105.820312 105.791016  102.314453 105.791016 L 7.529297 105.791016 L 11.041016 98.789062 L 98.800781 98.789062 C 102.314453 98.789062  102.314453 95.292969  102.314453 91.785156 L 102.314453 46.267578 L 4.041016 46.267578 Z " />
<path style="fill-rule:evenodd;stroke-width:1;stroke:none;fill:#95CC99;" d="M 49.660156 21.757812 L 46.146484 28.765625 L 56.671875 39.257812 L 60.183594 32.263672 L 49.660156 21.757812 Z " />
<path style="fill-rule:evenodd;stroke-width:1;stroke:#545454;fill:none;" d="M 4.041016 39.257812 L 4.041016 98.789062 C 4.041016 102.292969  7.529297 105.791016  11.041016 105.791016 L 102.314453 105.791016 C 105.820312 105.791016  109.332031 102.292969  109.332031 98.789062 L 109.332031 39.257812 C 109.332031 35.783203  105.820312 32.263672  102.314453 32.263672 L 60.183594 32.263672 C 56.671875 32.263672  53.166016 21.757812  49.660156 21.757812 L 28.589844 21.757812 C 25.078125 21.757812  21.572266 32.263672  18.060547 32.263672 L 11.041016 32.263672 C 7.529297 32.263672  4.041016 35.783203  4.041016 39.257812 Z " />
</g>
</svg>
