<?xml version="1.0" encoding="iso-8859-1"?>
<!DOCTYPE svg PUBLIC "-//W3C//DTD SVG 1.0//EN" "http://www.w3.org/TR/2001/REC-SVG-20010904/DTD/svg10.dtd">
<svg>
<!-- Constructed by RISC OS Draw -->
<g>
<path style="fill-rule:evenodd;stroke-width:3.75;stroke:#999;fill:#DBFFFF;" d="M 67.15625 118.669922 L 1.875 118.669922 L 1.875 1.875 L 118.669922 1.875 L 118.669922 74.009766 C 118.669922 80.189453  90.767578 88.472656  84.335937 87.732422 C 84.335937 94.607422  80.878906 118.669922  67.15625 118.669922 Z " />
<path style="fill-rule:evenodd;stroke-width:3.75;stroke:#999;fill:#FFF;" d="M 118.669922 74.009766 C 118.669922 87.732422  91.21875 118.630859  67.15625 118.630859 C 80.832031 118.630859  84.335937 94.607422  84.335937 87.732422 C 91.181641 87.732422  118.669922 80.890625  118.669922 74.009766 Z " />
</g>
<g>
<path style="fill-rule:evenodd;stroke:none;fill:#000;" d="M 14.035156 11.916016 L 14.035156 24.716797 C 14.035156 37.228516  22.498047 42.810547  34.621094 43.197266 C 47.660156 43.966797  53.037109 35.304687  53.037109 28.085937 L 53.037109 11.916016 L 14.035156 11.916016 Z M 18.037109 19.421875 L 49.376953 19.421875 C 49.376953 28.085937  50.291016 34.533203  34.164062 34.917969 C 17.123047 35.304687  17.580078 24.332031  18.037109 19.421875 Z " />
<path style="fill-rule:evenodd;stroke:none;fill:#000;" d="M 20.667969 46.835937 C 16.207031 46.835937  13.234375 49.916016  13.234375 53.667969 C 13.234375 55.882812  14.376953 59.347656  17.123047 60.117187 C 14.833984 60.501953  13.234375 63.101562  13.234375 65.025391 C 13.234375 66.855469  13.691406 68.394531  14.833984 69.550781 L 16.207031 69.550781 C 15.75 67.240234  18.037109 66.855469  19.867187 66.855469 L 33.25 66.855469 C 40.455078 67.240234  42.742187 61.560547  42.742187 58.193359 C 42.742187 54.824219  41.371094 50.685547  38.625 48.759766 L 34.621094 49.144531 L 34.621094 49.916016 C 37.367187 50.685547  38.625 53.667969  38.625 55.59375 C 38.625 57.806641  36.451172 59.732422  33.707031 60.117187 C 31.076172 60.501953  30.619141 57.806641  30.162109 56.652344 L 28.789062 53.283203 C 27.416016 49.529297  26.501953 47.220703  20.667969 46.835937 Z M 28.332031 60.117187 L 22.955078 60.117187 C 20.667969 60.117187  16.664062 59.347656  17.123047 56.267578 C 17.123047 54.439453  19.410156 54.054687  22.041016 54.054687 C 26.958984 54.054687  27.416016 57.421875  28.332031 60.117187 Z " />
<path style="fill-rule:evenodd;stroke:none;fill:#000;" d="M 20.667969 74.166016 C 11.861328 74.166016  11.404297 80.132812  14.376953 85.425781 L 16.664062 85.425781 C 15.292969 80.902344  17.580078 80.902344  22.041016 80.902344 L 37.367187 80.902344 L 37.367187 85.041016 C 38.625 84.751953  39.998047 84.751953  41.371094 85.041016 L 41.371094 80.902344 L 51.207031 80.902344 L 47.660156 74.166016 L 41.371094 74.166016 L 41.371094 70.699219 C 39.998047 71.085937  38.625 71.085937  37.367187 70.699219 L 37.367187 74.166016 L 20.667969 74.166016 Z " />
<path style="fill-rule:evenodd;stroke:none;fill:#000;" d="M 20.667969 87.085937 C 16.207031 87.085937  13.234375 90.166016  13.234375 93.917969 C 13.234375 96.132812  14.376953 99.597656  17.123047 100.367187 C 14.833984 100.751953  13.234375 103.351562  13.234375 105.275391 C 13.234375 107.105469  13.691406 108.644531  14.833984 109.800781 L 16.207031 109.800781 C 15.75 107.490234  18.037109 107.105469  19.867187 107.105469 L 33.25 107.105469 C 40.455078 107.490234  42.742187 101.810547  42.742187 98.443359 C 42.742187 95.074219  41.371094 90.935547  38.625 89.009766 L 34.621094 89.394531 L 34.621094 90.166016 C 37.367187 90.935547  38.625 93.917969  38.625 95.84375 C 38.625 98.056641  36.451172 99.982422  33.707031 100.367187 C 31.076172 100.751953  30.619141 98.056641  30.162109 96.902344 L 28.789062 93.533203 C 27.416016 89.779297  26.501953 87.470703  20.667969 87.085937 Z M 28.332031 100.367187 L 22.955078 100.367187 C 20.667969 100.367187  16.664062 99.597656  17.123047 96.517578 C 17.123047 94.689453  19.410156 94.304687  22.041016 94.304687 C 26.958984 94.304687  27.416016 97.671875  28.332031 100.367187 Z " />
</g>
<g>
<path style="fill-rule:evenodd;stroke-width:1.324219;stroke:none;fill:#090;" d="M 90.166016 38.28125 L 97.005859 35.447266 L 99.84375 28.607422 L 97.005859 21.785156 L 90.166016 18.951172 L 83.347656 21.785156 L 80.509766 28.607422 L 83.347656 35.447266 L 90.166016 38.28125 Z M 90.166016 49.332031 C 89.457031 49.332031  88.748047 49.287109  88.0625 49.220703 L 87.861328 49.201172 L 86.511719 41.935547 L 86.070312 41.802734 C 85.205078 41.537109  84.363281 41.183594  83.589844 40.761719 L 83.347656 40.605469 L 77.257812 44.792969 L 76.990234 44.591797 C 75.970703 43.751953  75.042969 42.820312  74.177734 41.783203 L 73.976562 41.515625 L 78.164062 35.447266 L 78.033203 35.205078 C 77.609375 34.40625  77.257812 33.589844  76.990234 32.724609 L 76.855469 32.261719 L 69.59375 30.931641 L 69.572266 30.732422 C 69.507812 30.046875  69.462891 29.337891  69.462891 28.607422 C 69.462891 27.898437  69.507812 27.189453  69.572266 26.503906 L 69.59375 26.302734 L 76.855469 24.953125 L 76.990234 24.509766 C 77.257812 23.646484  77.609375 22.826172  78.033203 22.029297 L 78.164062 21.785156 L 73.976562 15.695312 L 74.177734 15.453125 C 75.042969 14.410156  75.970703 13.480469  76.990234 12.638672 L 77.257812 12.417969 L 83.347656 16.605469 L 83.589844 16.470703 C 84.363281 16.050781  85.205078 15.695312  86.070312 15.431641 L 86.511719 15.296875 L 87.861328 8.035156 L 88.0625 8.013672 C 88.748047 7.945312  89.457031 7.902344  90.166016 7.902344 C 90.875 7.902344  91.582031 7.945312  92.291016 8.013672 L 92.492187 8.035156 L 93.820312 15.296875 L 94.283203 15.431641 C 95.148437 15.695312  95.96875 16.050781  96.744141 16.470703 L 96.986328 16.625 L 103.076172 12.417969 L 103.341797 12.638672 C 104.359375 13.480469  105.310547 14.410156  106.154297 15.431641 L 106.351562 15.695312 L 102.167969 21.785156 L 102.300781 22.029297 C 102.742187 22.826172  103.076172 23.646484  103.363281 24.509766 L 103.472656 24.953125 L 110.736328 26.302734 L 110.78125 26.503906 C 110.845703 27.189453  110.871094 27.898437  110.871094 28.607422 C 110.871094 29.337891  110.845703 30.021484  110.78125 30.732422 L 110.736328 30.931641 L 103.472656 32.261719 L 103.363281 32.724609 C 103.076172 33.589844  102.742187 34.40625  102.300781 35.205078 L 102.167969 35.447266 L 106.351562 41.515625 L 106.154297 41.783203 C 105.310547 42.820312  104.359375 43.751953  103.341797 44.591797 L 103.076172 44.792969 L 97.005859 40.605469 L 96.744141 40.761719 C 95.96875 41.183594  95.148437 41.537109  94.283203 41.802734 L 93.820312 41.935547 L 92.492187 49.201172 L 92.291016 49.220703 C 91.582031 49.287109  90.875 49.332031  90.166016 49.332031 Z " />
<g>
<path style="fill-rule:evenodd;stroke-width:0.585937;stroke:#004C00;fill:none;" d="M 97.005859 21.763672 L 90.166016 18.951172 L 83.347656 21.763672 L 80.509766 28.607422 L 83.347656 35.447266 M 92.492187 8.013672 L 93.820312 15.275391 M 106.154297 15.431641 L 106.351562 15.695312 L 102.167969 21.763672 L 102.320312 22.005859 C 102.742187 22.804687  103.095703 23.625  103.363281 24.486328 L 103.498047 24.953125 M 110.759766 26.28125 L 110.78125 26.478516 C 110.845703 27.167969  110.871094 27.873047  110.871094 28.607422 C 110.871094 29.3125  110.845703 30.021484  110.78125 30.710937 L 110.759766 30.908203 L 103.498047 32.261719 L 103.363281 32.703125 C 103.095703 33.564453  102.742187 34.40625  102.320312 35.181641 L 102.167969 35.425781 L 106.351562 41.515625 L 106.154297 41.783203 C 105.310547 42.800781  104.359375 43.730469  103.341797 44.572266 L 103.076172 44.792969 L 96.986328 40.605469 L 96.744141 40.740234 C 95.96875 41.160156  95.148437 41.515625  94.283203 41.783203 L 93.820312 41.914062 L 92.492187 49.175781 L 92.291016 49.201172 C 91.605469 49.265625  90.896484 49.310547  90.166016 49.310547 C 89.457031 49.310547  88.748047 49.265625  88.0625 49.201172 L 87.841797 49.175781 M 86.511719 41.914062 L 86.070312 41.783203 C 85.205078 41.515625  84.363281 41.160156  83.589844 40.740234 L 83.347656 40.605469 L 77.257812 44.792969 L 76.990234 44.591797 C 75.970703 43.730469  75.128906 42.708984  74.199219 41.783203 M 76.855469 32.261719 L 69.59375 30.908203 " />
<path style="fill-rule:evenodd;stroke-width:0.585937;stroke:#00E500;fill:none;" d="M 83.322266 35.447266 L 90.166016 38.28125 L 97.005859 35.447266 L 99.84375 28.628906 L 97.005859 21.785156 M 87.861328 49.201172 L 86.511719 41.935547 M 74.177734 41.802734 L 73.976562 41.537109 L 78.164062 35.447266 L 78.033203 35.205078 C 77.589844 34.429687  77.257812 33.609375  76.990234 32.746094 L 76.855469 32.28125 M 69.59375 30.931641 L 69.572266 30.751953 C 69.482422 30.046875  69.462891 29.337891  69.462891 28.628906 C 69.462891 27.917969  69.482422 27.208984  69.572266 26.503906 L 69.59375 26.302734 L 76.855469 24.974609 L 76.990234 24.53125 C 77.257812 23.666016  77.589844 22.826172  78.033203 22.050781 L 78.164062 21.785156 L 73.976562 15.71875 L 74.177734 15.453125 C 75.019531 14.435547  75.970703 13.480469  76.990234 12.638672 L 77.257812 12.441406 L 83.347656 16.625 L 83.589844 16.494141 C 84.363281 16.072266  85.183594 15.71875  86.070312 15.453125 L 86.511719 15.320312 L 87.861328 8.054687 L 88.039062 8.035156 C 88.748047 7.945312  89.457031 7.923828  90.166016 7.923828 C 90.875 7.923828  91.582031 7.945312  92.291016 8.035156 L 92.492187 8.054687 M 93.820312 15.320312 L 94.263672 15.453125 C 95.125 15.71875  95.96875 16.072266  96.744141 16.494141 L 96.986328 16.625 L 103.076172 12.441406 L 103.341797 12.638672 C 104.359375 13.480469  105.199219 14.521484  106.154297 15.453125 M 103.472656 24.974609 L 110.736328 26.302734 " />
</g>
</g>
</svg>
