<?xml version="1.0" encoding="iso-8859-1"?>
<!DOCTYPE svg PUBLIC "-//W3C//DTD SVG 1.0//EN" "http://www.w3.org/TR/2001/REC-SVG-20010904/DTD/svg10.dtd">
<svg>
<!-- Constructed by RISC OS Draw -->
<g>
<path style="fill-rule:evenodd;stroke-width:3.75;stroke:#999;fill:#FFF;" d="M 67.15625 118.669922 L 1.875 118.669922 L 1.875 1.875 L 118.669922 1.875 L 118.669922 74.009766 C 118.669922 80.189453  90.767578 88.472656  84.335937 87.732422 C 84.335937 94.607422  80.878906 118.669922  67.15625 118.669922 Z " />
<path style="fill-rule:evenodd;stroke-width:3.75;stroke:#999;fill:#FFF;" d="M 118.669922 74.009766 C 118.669922 87.732422  91.21875 118.630859  67.15625 118.630859 C 80.832031 118.630859  84.335937 94.607422  84.335937 87.732422 C 91.181641 87.732422  118.669922 80.890625  118.669922 74.009766 Z " />
</g>
<path style="fill-rule:evenodd;stroke:none;fill:#000;" d="M 49.927734 44.837891 C 49.314453 40.550781  52.150391 35.984375  55.751953 36.078125 C 60.119141 36.263672  62.035156 38.408203  62.265625 44.373047 C 62.572266 51.083984  53.835937 55.835937  53.222656 60.404297 C 52.455078 65.34375  54.21875 73.171875  55.369141 75.78125 L 59.201172 75.78125 C 59.429687 71.587891  58.509766 67.580078  61.269531 65.064453 C 64.488281 62.082031  73.378906 55.650391  72.919922 46.609375 C 72.228516 33.654297  62.955078 28.341797  56.748047 29.367187 C 45.865234 31.136719  45.097656 40.085937  45.175781 44.931641 L 49.927734 44.837891 Z M 51.152344 85.101562 C 51.152344 88.830078  53.681641 91.90625  56.824219 91.90625 C 59.890625 91.90625  62.496094 88.830078  62.496094 85.101562 C 62.496094 81.28125  59.890625 78.205078  56.824219 78.205078 C 53.681641 78.205078  51.152344 81.28125  51.152344 85.101562 L 51.152344 85.101562 Z " />
</svg>
